<?xml version="1.0" encoding="UTF-8"?>
<svg id="Layer_1" data-name="Layer 1" xmlns="http://www.w3.org/2000/svg" viewBox="0 0 364.8 636.63">
  <defs>
    <style>
      .cls-1 {
        fill: #b2212b;
      }

      .cls-2 {
        fill: #fff;
      }
    </style>
  </defs>
  <path class="cls-1" d="M279.44,165.24c-44.01.4-82.59-34.63-82.56-82.59C196.92,34.25,236.34-.33,280.27,0c45.16.34,83.54,37.21,82.19,85.24-1.23,44.15-37.5,80.59-83.03,79.99Z"/>
  <path class="cls-1" d="M109.94,587.75v12.47h14.85v11.41h-14.62v12.31h17.75v12.12h-30.05v-59.06h29.6v10.75h-17.52Z"/>
  <rect class="cls-2" y=".32" width="161.23" height="556.55" rx="20.14" ry="20.14"/>
  <rect class="cls-2" x="199.39" y="198.41" width="161.19" height="159.99" rx="20.1" ry="20.1"/>
  <rect class="cls-2" x="199.19" y="396.96" width="161.34" height="159.64" rx="19.97" ry="19.97"/>
  <path class="cls-2" d="M363.86,578.6c-.64,3.84-1.21,7.26-1.8,10.83-9.22-2.68-18.08-3.55-24.53,5.28-4.79,6.56-4.75,16.46.23,22.79,6.96,8.85,16.11,7.47,25.71,4.61.45,3.64.88,7.23,1.33,10.85-9.76,6.56-25.54,4.03-34.84-5.27-10.37-10.36-10.52-29.55-2.57-40.39,7.75-10.56,23.88-14.7,36.47-8.7Z"/>
  <path class="cls-2" d="M212.06,576.81h10.92v47.07h18.91v12.24h-29.83v-59.32Z"/>
  <path class="cls-2" d="M1.26,576.8h10.65v59.37H1.26v-59.37Z"/>
</svg>